<mxfile host="65bd71144e">
    <diagram id="ftglrU1FlYm7jEPvMOvH" name="使用案例圖">
        <mxGraphModel dx="965" dy="667" grid="0" gridSize="10" guides="1" tooltips="1" connect="1" arrows="1" fold="1" page="1" pageScale="1" pageWidth="827" pageHeight="1169" background="#ffffff" math="0" shadow="0">
            <root>
                <mxCell id="0"/>
                <mxCell id="1" parent="0"/>
                <mxCell id="iNfx0G8FtjPH49owoZk--5" value="前台" style="shape=umlFrame;whiteSpace=wrap;html=1;swimlaneFillColor=#FFE6CC;fillColor=#CCFFE6;strokeColor=#82b366;gradientColor=#CC99FF;fontColor=#000000;" vertex="1" parent="1">
                    <mxGeometry x="230" y="80" width="610" height="1090" as="geometry"/>
                </mxCell>
                <mxCell id="iNfx0G8FtjPH49owoZk--6" value="會員作業" style="ellipse;whiteSpace=wrap;html=1;fontColor=#000000;fillColor=#99FFFF;gradientColor=none;strokeColor=#808080;" vertex="1" parent="1">
                    <mxGeometry x="342" y="395" width="140" height="70" as="geometry"/>
                </mxCell>
                <mxCell id="iNfx0G8FtjPH49owoZk--7" value="註冊流程" style="ellipse;whiteSpace=wrap;html=1;fontColor=#000000;fillColor=#99FFFF;gradientColor=none;strokeColor=#808080;" vertex="1" parent="1">
                    <mxGeometry x="342" y="265" width="140" height="70" as="geometry"/>
                </mxCell>
                <mxCell id="iNfx0G8FtjPH49owoZk--8" value="登入流程" style="ellipse;whiteSpace=wrap;html=1;fontColor=#000000;fillColor=#99FFFF;gradientColor=none;strokeColor=#808080;" vertex="1" parent="1">
                    <mxGeometry x="588" y="395" width="140" height="70" as="geometry"/>
                </mxCell>
                <mxCell id="iNfx0G8FtjPH49owoZk--9" value="個人檔案作業" style="ellipse;whiteSpace=wrap;html=1;fontColor=#000000;fillColor=#99FFFF;gradientColor=none;strokeColor=#808080;" vertex="1" parent="1">
                    <mxGeometry x="342" y="655" width="140" height="70" as="geometry"/>
                </mxCell>
                <mxCell id="iNfx0G8FtjPH49owoZk--10" value="貼文作業" style="ellipse;whiteSpace=wrap;html=1;fontColor=#000000;fillColor=#99FFFF;gradientColor=none;strokeColor=#808080;" vertex="1" parent="1">
                    <mxGeometry x="588" y="785" width="140" height="70" as="geometry"/>
                </mxCell>
                <mxCell id="iNfx0G8FtjPH49owoZk--11" value="搜尋作業" style="ellipse;whiteSpace=wrap;html=1;fontColor=#000000;fillColor=#99FFFF;gradientColor=none;strokeColor=#808080;" vertex="1" parent="1">
                    <mxGeometry x="342" y="785" width="140" height="70" as="geometry"/>
                </mxCell>
                <mxCell id="iNfx0G8FtjPH49owoZk--12" value="探索作業" style="ellipse;whiteSpace=wrap;html=1;fontColor=#000000;fillColor=#99FFFF;gradientColor=none;strokeColor=#808080;" vertex="1" parent="1">
                    <mxGeometry x="588" y="915" width="140" height="70" as="geometry"/>
                </mxCell>
                <mxCell id="iNfx0G8FtjPH49owoZk--13" value="聊天作業" style="ellipse;whiteSpace=wrap;html=1;fontColor=#000000;fillColor=#99FFFF;gradientColor=none;strokeColor=#808080;" vertex="1" parent="1">
                    <mxGeometry x="342" y="915" width="140" height="70" as="geometry"/>
                </mxCell>
                <mxCell id="iNfx0G8FtjPH49owoZk--15" value="限時動態作業" style="ellipse;whiteSpace=wrap;html=1;fontColor=#000000;fillColor=#99FFFF;gradientColor=none;strokeColor=#808080;" vertex="1" parent="1">
                    <mxGeometry x="342" y="1045" width="140" height="70" as="geometry"/>
                </mxCell>
                <mxCell id="iNfx0G8FtjPH49owoZk--16" value="追蹤作業" style="ellipse;whiteSpace=wrap;html=1;fontColor=#000000;fillColor=#99FFFF;gradientColor=none;strokeColor=#808080;" vertex="1" parent="1">
                    <mxGeometry x="588" y="655" width="140" height="70" as="geometry"/>
                </mxCell>
                <mxCell id="iNfx0G8FtjPH49owoZk--17" value="基本資料作業" style="ellipse;whiteSpace=wrap;html=1;fontColor=#000000;fillColor=#99FFFF;gradientColor=none;strokeColor=#808080;" vertex="1" parent="1">
                    <mxGeometry x="342" y="525" width="140" height="70" as="geometry"/>
                </mxCell>
                <mxCell id="iNfx0G8FtjPH49owoZk--18" value="通知作業" style="ellipse;whiteSpace=wrap;html=1;fontColor=#000000;fillColor=#99FFFF;gradientColor=none;strokeColor=#808080;" vertex="1" parent="1">
                    <mxGeometry x="342" y="135" width="140" height="70" as="geometry"/>
                </mxCell>
                <mxCell id="iNfx0G8FtjPH49owoZk--19" value="&amp;lt;&amp;lt; include &amp;gt;&amp;gt;" style="endArrow=block;endFill=1;html=1;fontColor=#000000;rounded=1;dashed=1;strokeWidth=1;strokeColor=#000000;labelBackgroundColor=none;exitX=0.5;exitY=1;exitDx=0;exitDy=0;entryX=0.5;entryY=0;entryDx=0;entryDy=0;" edge="1" parent="1" source="iNfx0G8FtjPH49owoZk--7" target="iNfx0G8FtjPH49owoZk--6">
                    <mxGeometry x="-0.1667" y="48" width="160" relative="1" as="geometry">
                        <mxPoint x="297" y="240" as="sourcePoint"/>
                        <mxPoint x="297" y="199" as="targetPoint"/>
                        <mxPoint as="offset"/>
                    </mxGeometry>
                </mxCell>
                <mxCell id="iNfx0G8FtjPH49owoZk--20" value="&amp;lt;&amp;lt; include &amp;gt;&amp;gt;" style="endArrow=block;endFill=1;html=1;fontColor=#000000;rounded=1;dashed=1;strokeWidth=1;strokeColor=#000000;labelBackgroundColor=none;exitX=1;exitY=0;exitDx=0;exitDy=0;entryX=0;entryY=0;entryDx=0;entryDy=0;" edge="1" parent="1" source="iNfx0G8FtjPH49owoZk--6" target="iNfx0G8FtjPH49owoZk--8">
                    <mxGeometry x="0.0684" y="-15" width="160" relative="1" as="geometry">
                        <mxPoint x="307" y="250" as="sourcePoint"/>
                        <mxPoint x="307" y="209" as="targetPoint"/>
                        <mxPoint as="offset"/>
                    </mxGeometry>
                </mxCell>
                <mxCell id="iNfx0G8FtjPH49owoZk--21" value="&amp;lt;&amp;lt; include &amp;gt;&amp;gt;" style="endArrow=block;endFill=1;html=1;fontColor=#000000;rounded=1;dashed=1;strokeWidth=1;strokeColor=#000000;labelBackgroundColor=none;exitX=0;exitY=0.5;exitDx=0;exitDy=0;entryX=1;entryY=0.5;entryDx=0;entryDy=0;" edge="1" parent="1" source="iNfx0G8FtjPH49owoZk--8" target="iNfx0G8FtjPH49owoZk--6">
                    <mxGeometry x="-0.0684" y="15" width="160" relative="1" as="geometry">
                        <mxPoint x="317" y="260" as="sourcePoint"/>
                        <mxPoint x="317" y="219" as="targetPoint"/>
                        <mxPoint as="offset"/>
                    </mxGeometry>
                </mxCell>
                <mxCell id="iNfx0G8FtjPH49owoZk--22" value="&amp;lt;&amp;lt; include &amp;gt;&amp;gt;" style="endArrow=block;endFill=1;html=1;fontColor=#000000;rounded=1;dashed=1;strokeWidth=1;strokeColor=#000000;labelBackgroundColor=none;exitX=0.5;exitY=0;exitDx=0;exitDy=0;entryX=0.5;entryY=1;entryDx=0;entryDy=0;" edge="1" parent="1" source="iNfx0G8FtjPH49owoZk--17" target="iNfx0G8FtjPH49owoZk--6">
                    <mxGeometry x="-0.0732" y="-45" width="160" relative="1" as="geometry">
                        <mxPoint x="327" y="270" as="sourcePoint"/>
                        <mxPoint x="327" y="229" as="targetPoint"/>
                        <mxPoint as="offset"/>
                    </mxGeometry>
                </mxCell>
                <mxCell id="iNfx0G8FtjPH49owoZk--23" value="&amp;lt;&amp;lt; include &amp;gt;&amp;gt;" style="endArrow=block;endFill=1;html=1;fontColor=#000000;rounded=1;dashed=1;strokeWidth=1;strokeColor=#000000;labelBackgroundColor=none;exitX=0.5;exitY=0;exitDx=0;exitDy=0;entryX=0.5;entryY=1;entryDx=0;entryDy=0;" edge="1" parent="1" source="iNfx0G8FtjPH49owoZk--9" target="iNfx0G8FtjPH49owoZk--17">
                    <mxGeometry x="-0.0732" y="-45" width="160" relative="1" as="geometry">
                        <mxPoint x="337" y="280" as="sourcePoint"/>
                        <mxPoint x="337" y="239" as="targetPoint"/>
                        <mxPoint as="offset"/>
                    </mxGeometry>
                </mxCell>
                <mxCell id="iNfx0G8FtjPH49owoZk--24" value="&amp;lt;&amp;lt; include &amp;gt;&amp;gt;" style="endArrow=block;endFill=1;html=1;fontColor=#000000;rounded=1;dashed=1;strokeWidth=1;strokeColor=#000000;labelBackgroundColor=none;exitX=1;exitY=0;exitDx=0;exitDy=0;entryX=0;entryY=0;entryDx=0;entryDy=0;" edge="1" parent="1" source="iNfx0G8FtjPH49owoZk--9" target="iNfx0G8FtjPH49owoZk--16">
                    <mxGeometry x="0.0684" y="-15" width="160" relative="1" as="geometry">
                        <mxPoint x="347" y="290" as="sourcePoint"/>
                        <mxPoint x="347" y="249" as="targetPoint"/>
                        <mxPoint as="offset"/>
                    </mxGeometry>
                </mxCell>
                <mxCell id="iNfx0G8FtjPH49owoZk--25" value="&amp;lt;&amp;lt; include &amp;gt;&amp;gt;" style="endArrow=block;endFill=1;html=1;fontColor=#000000;rounded=1;dashed=1;strokeWidth=1;strokeColor=#000000;labelBackgroundColor=none;exitX=0;exitY=0.5;exitDx=0;exitDy=0;entryX=1;entryY=0.5;entryDx=0;entryDy=0;" edge="1" parent="1" source="iNfx0G8FtjPH49owoZk--16" target="iNfx0G8FtjPH49owoZk--9">
                    <mxGeometry x="-0.0684" y="15" width="160" relative="1" as="geometry">
                        <mxPoint x="357" y="300" as="sourcePoint"/>
                        <mxPoint x="357" y="259" as="targetPoint"/>
                        <mxPoint as="offset"/>
                    </mxGeometry>
                </mxCell>
                <mxCell id="iNfx0G8FtjPH49owoZk--26" value="&amp;lt;&amp;lt; include &amp;gt;&amp;gt;" style="endArrow=block;endFill=1;html=1;fontColor=#000000;rounded=1;dashed=1;strokeWidth=1;strokeColor=#000000;labelBackgroundColor=none;exitX=0.5;exitY=0;exitDx=0;exitDy=0;entryX=0.5;entryY=1;entryDx=0;entryDy=0;" edge="1" parent="1" source="iNfx0G8FtjPH49owoZk--11" target="iNfx0G8FtjPH49owoZk--9">
                    <mxGeometry x="-0.0732" y="-45" width="160" relative="1" as="geometry">
                        <mxPoint x="367" y="310" as="sourcePoint"/>
                        <mxPoint x="367" y="269" as="targetPoint"/>
                        <mxPoint as="offset"/>
                    </mxGeometry>
                </mxCell>
                <mxCell id="iNfx0G8FtjPH49owoZk--27" value="&amp;lt;&amp;lt; include &amp;gt;&amp;gt;" style="endArrow=block;endFill=1;html=1;fontColor=#000000;rounded=1;dashed=1;strokeWidth=1;strokeColor=#000000;labelBackgroundColor=none;exitX=0;exitY=0.5;exitDx=0;exitDy=0;entryX=1;entryY=1;entryDx=0;entryDy=0;" edge="1" parent="1" source="iNfx0G8FtjPH49owoZk--10" target="iNfx0G8FtjPH49owoZk--9">
                    <mxGeometry x="-0.4417" y="-27" width="160" relative="1" as="geometry">
                        <mxPoint x="377" y="320" as="sourcePoint"/>
                        <mxPoint x="377" y="279" as="targetPoint"/>
                        <mxPoint as="offset"/>
                    </mxGeometry>
                </mxCell>
                <mxCell id="iNfx0G8FtjPH49owoZk--28" value="&amp;lt;&amp;lt; include &amp;gt;&amp;gt;" style="endArrow=block;endFill=1;html=1;fontColor=#000000;rounded=1;dashed=1;strokeWidth=1;strokeColor=#000000;labelBackgroundColor=none;exitX=0.5;exitY=0;exitDx=0;exitDy=0;entryX=0.5;entryY=1;entryDx=0;entryDy=0;" edge="1" parent="1" source="iNfx0G8FtjPH49owoZk--12" target="iNfx0G8FtjPH49owoZk--10">
                    <mxGeometry x="-0.0732" y="-45" width="160" relative="1" as="geometry">
                        <mxPoint x="387" y="330" as="sourcePoint"/>
                        <mxPoint x="387" y="289" as="targetPoint"/>
                        <mxPoint as="offset"/>
                    </mxGeometry>
                </mxCell>
                <mxCell id="iNfx0G8FtjPH49owoZk--29" value="&amp;lt;&amp;lt; include &amp;gt;&amp;gt;" style="endArrow=block;endFill=1;html=1;fontColor=#000000;rounded=1;dashed=1;strokeWidth=1;strokeColor=#000000;labelBackgroundColor=none;exitX=0.5;exitY=0;exitDx=0;exitDy=0;entryX=0;entryY=1;entryDx=0;entryDy=0;" edge="1" parent="1" source="iNfx0G8FtjPH49owoZk--13" target="iNfx0G8FtjPH49owoZk--9">
                    <mxGeometry x="-0.6788" y="-26" width="160" relative="1" as="geometry">
                        <mxPoint x="397" y="340" as="sourcePoint"/>
                        <mxPoint x="397" y="299" as="targetPoint"/>
                        <mxPoint as="offset"/>
                        <Array as="points">
                            <mxPoint x="300" y="890"/>
                        </Array>
                    </mxGeometry>
                </mxCell>
                <mxCell id="iNfx0G8FtjPH49owoZk--30" value="&amp;lt;&amp;lt; include &amp;gt;&amp;gt;" style="endArrow=block;endFill=1;html=1;fontColor=#000000;rounded=1;dashed=1;strokeWidth=1;strokeColor=#000000;labelBackgroundColor=none;exitX=0.5;exitY=0;exitDx=0;exitDy=0;entryX=0;entryY=0.5;entryDx=0;entryDy=0;" edge="1" parent="1" source="iNfx0G8FtjPH49owoZk--15" target="iNfx0G8FtjPH49owoZk--9">
                    <mxGeometry x="-0.8671" y="-22" width="160" relative="1" as="geometry">
                        <mxPoint x="407" y="350" as="sourcePoint"/>
                        <mxPoint x="407" y="309" as="targetPoint"/>
                        <mxPoint as="offset"/>
                        <Array as="points">
                            <mxPoint x="260" y="940"/>
                        </Array>
                    </mxGeometry>
                </mxCell>
                <mxCell id="iNfx0G8FtjPH49owoZk--40" style="edgeStyle=none;html=1;entryX=0;entryY=0;entryDx=0;entryDy=0;fontColor=#000000;endArrow=none;endFill=0;strokeColor=#000000;" edge="1" parent="1" source="iNfx0G8FtjPH49owoZk--31" target="iNfx0G8FtjPH49owoZk--7">
                    <mxGeometry relative="1" as="geometry"/>
                </mxCell>
                <mxCell id="iNfx0G8FtjPH49owoZk--41" style="edgeStyle=none;html=1;entryX=0;entryY=0;entryDx=0;entryDy=0;fontColor=#000000;endArrow=none;endFill=0;strokeColor=#000000;" edge="1" parent="1" source="iNfx0G8FtjPH49owoZk--31" target="iNfx0G8FtjPH49owoZk--9">
                    <mxGeometry relative="1" as="geometry"/>
                </mxCell>
                <mxCell id="iNfx0G8FtjPH49owoZk--42" style="edgeStyle=none;html=1;entryX=0;entryY=0.5;entryDx=0;entryDy=0;fontColor=#000000;endArrow=none;endFill=0;strokeColor=#000000;" edge="1" parent="1" source="iNfx0G8FtjPH49owoZk--31" target="iNfx0G8FtjPH49owoZk--6">
                    <mxGeometry relative="1" as="geometry"/>
                </mxCell>
                <mxCell id="iNfx0G8FtjPH49owoZk--31" value="人員" style="shape=umlActor;verticalLabelPosition=bottom;verticalAlign=top;html=1;fontColor=#000000;strokeColor=#808080;fillColor=none;gradientColor=none;" vertex="1" parent="1">
                    <mxGeometry x="81" y="218" width="30" height="60" as="geometry"/>
                </mxCell>
                <mxCell id="iNfx0G8FtjPH49owoZk--43" style="edgeStyle=none;html=1;entryX=0;entryY=0.5;entryDx=0;entryDy=0;fontColor=#000000;endArrow=none;endFill=0;strokeColor=#000000;" edge="1" parent="1" source="iNfx0G8FtjPH49owoZk--32" target="iNfx0G8FtjPH49owoZk--18">
                    <mxGeometry relative="1" as="geometry"/>
                </mxCell>
                <mxCell id="iNfx0G8FtjPH49owoZk--44" style="edgeStyle=none;html=1;entryX=0;entryY=0.5;entryDx=0;entryDy=0;fontColor=#000000;endArrow=none;endFill=0;strokeColor=#000000;" edge="1" parent="1" source="iNfx0G8FtjPH49owoZk--32" target="iNfx0G8FtjPH49owoZk--6">
                    <mxGeometry relative="1" as="geometry"/>
                </mxCell>
                <mxCell id="iNfx0G8FtjPH49owoZk--45" style="edgeStyle=none;html=1;entryX=0;entryY=0.5;entryDx=0;entryDy=0;fontColor=#000000;endArrow=none;endFill=0;strokeColor=#000000;" edge="1" parent="1" source="iNfx0G8FtjPH49owoZk--32" target="iNfx0G8FtjPH49owoZk--17">
                    <mxGeometry relative="1" as="geometry"/>
                </mxCell>
                <mxCell id="iNfx0G8FtjPH49owoZk--46" style="edgeStyle=none;html=1;entryX=0.548;entryY=0.999;entryDx=0;entryDy=0;entryPerimeter=0;fontColor=#000000;endArrow=none;endFill=0;strokeColor=#000000;" edge="1" parent="1" source="iNfx0G8FtjPH49owoZk--32" target="iNfx0G8FtjPH49owoZk--8">
                    <mxGeometry relative="1" as="geometry">
                        <Array as="points">
                            <mxPoint x="377" y="489"/>
                        </Array>
                    </mxGeometry>
                </mxCell>
                <mxCell id="iNfx0G8FtjPH49owoZk--47" style="edgeStyle=none;html=1;entryX=0.101;entryY=0.191;entryDx=0;entryDy=0;entryPerimeter=0;fontColor=#000000;endArrow=none;endFill=0;strokeColor=#000000;" edge="1" parent="1" source="iNfx0G8FtjPH49owoZk--32" target="iNfx0G8FtjPH49owoZk--9">
                    <mxGeometry relative="1" as="geometry"/>
                </mxCell>
                <mxCell id="iNfx0G8FtjPH49owoZk--48" style="edgeStyle=none;html=1;entryX=0.5;entryY=0;entryDx=0;entryDy=0;fontColor=#000000;endArrow=none;endFill=0;strokeColor=#000000;" edge="1" parent="1" source="iNfx0G8FtjPH49owoZk--32" target="iNfx0G8FtjPH49owoZk--16">
                    <mxGeometry relative="1" as="geometry">
                        <Array as="points">
                            <mxPoint x="365" y="599"/>
                        </Array>
                    </mxGeometry>
                </mxCell>
                <mxCell id="iNfx0G8FtjPH49owoZk--49" style="edgeStyle=none;html=1;entryX=0;entryY=0;entryDx=0;entryDy=0;fontColor=#000000;endArrow=none;endFill=0;strokeColor=#000000;" edge="1" parent="1" source="iNfx0G8FtjPH49owoZk--32" target="iNfx0G8FtjPH49owoZk--11">
                    <mxGeometry relative="1" as="geometry"/>
                </mxCell>
                <mxCell id="iNfx0G8FtjPH49owoZk--50" style="edgeStyle=none;html=1;entryX=0;entryY=0;entryDx=0;entryDy=0;fontColor=#000000;endArrow=none;endFill=0;strokeColor=#000000;" edge="1" parent="1" source="iNfx0G8FtjPH49owoZk--32" target="iNfx0G8FtjPH49owoZk--10">
                    <mxGeometry relative="1" as="geometry">
                        <Array as="points">
                            <mxPoint x="336" y="748"/>
                        </Array>
                    </mxGeometry>
                </mxCell>
                <mxCell id="iNfx0G8FtjPH49owoZk--51" style="edgeStyle=none;html=1;entryX=0;entryY=0;entryDx=0;entryDy=0;fontColor=#000000;endArrow=none;endFill=0;strokeColor=#000000;" edge="1" parent="1" source="iNfx0G8FtjPH49owoZk--32" target="iNfx0G8FtjPH49owoZk--12">
                    <mxGeometry relative="1" as="geometry">
                        <Array as="points">
                            <mxPoint x="304" y="835"/>
                        </Array>
                    </mxGeometry>
                </mxCell>
                <mxCell id="iNfx0G8FtjPH49owoZk--52" style="edgeStyle=none;html=1;entryX=0;entryY=0;entryDx=0;entryDy=0;fontColor=#000000;endArrow=none;endFill=0;strokeColor=#000000;" edge="1" parent="1" source="iNfx0G8FtjPH49owoZk--32" target="iNfx0G8FtjPH49owoZk--13">
                    <mxGeometry relative="1" as="geometry">
                        <Array as="points">
                            <mxPoint x="272" y="889"/>
                        </Array>
                    </mxGeometry>
                </mxCell>
                <mxCell id="iNfx0G8FtjPH49owoZk--53" style="edgeStyle=none;html=1;entryX=0;entryY=0;entryDx=0;entryDy=0;fontColor=#000000;endArrow=none;endFill=0;strokeColor=#000000;" edge="1" parent="1" source="iNfx0G8FtjPH49owoZk--32" target="iNfx0G8FtjPH49owoZk--15">
                    <mxGeometry relative="1" as="geometry">
                        <Array as="points">
                            <mxPoint x="262" y="1002"/>
                        </Array>
                    </mxGeometry>
                </mxCell>
                <mxCell id="iNfx0G8FtjPH49owoZk--32" value="會員" style="shape=umlActor;verticalLabelPosition=bottom;verticalAlign=top;html=1;fontColor=#000000;strokeColor=#808080;fillColor=none;gradientColor=none;" vertex="1" parent="1">
                    <mxGeometry x="81" y="400" width="30" height="60" as="geometry"/>
                </mxCell>
                <mxCell id="iNfx0G8FtjPH49owoZk--54" style="edgeStyle=none;html=1;entryX=0;entryY=0.5;entryDx=0;entryDy=0;fontColor=#000000;endArrow=none;endFill=0;strokeColor=#000000;" edge="1" parent="1" source="iNfx0G8FtjPH49owoZk--33" target="iNfx0G8FtjPH49owoZk--6">
                    <mxGeometry relative="1" as="geometry"/>
                </mxCell>
                <mxCell id="iNfx0G8FtjPH49owoZk--55" style="edgeStyle=none;html=1;entryX=0.5;entryY=1;entryDx=0;entryDy=0;fontColor=#000000;endArrow=none;endFill=0;strokeColor=#000000;" edge="1" parent="1" source="iNfx0G8FtjPH49owoZk--33" target="iNfx0G8FtjPH49owoZk--8">
                    <mxGeometry relative="1" as="geometry">
                        <Array as="points">
                            <mxPoint x="376" y="524"/>
                        </Array>
                    </mxGeometry>
                </mxCell>
                <mxCell id="iNfx0G8FtjPH49owoZk--56" style="edgeStyle=none;html=1;entryX=0;entryY=0.5;entryDx=0;entryDy=0;fontColor=#000000;endArrow=none;endFill=0;strokeColor=#000000;" edge="1" parent="1" source="iNfx0G8FtjPH49owoZk--33" target="iNfx0G8FtjPH49owoZk--17">
                    <mxGeometry relative="1" as="geometry"/>
                </mxCell>
                <mxCell id="iNfx0G8FtjPH49owoZk--57" style="edgeStyle=none;html=1;entryX=0;entryY=0.5;entryDx=0;entryDy=0;fontColor=#000000;endArrow=none;endFill=0;strokeColor=#000000;" edge="1" parent="1" source="iNfx0G8FtjPH49owoZk--33" target="iNfx0G8FtjPH49owoZk--9">
                    <mxGeometry relative="1" as="geometry"/>
                </mxCell>
                <mxCell id="iNfx0G8FtjPH49owoZk--58" style="edgeStyle=none;html=1;entryX=0;entryY=0;entryDx=0;entryDy=0;fontColor=#000000;endArrow=none;endFill=0;strokeColor=#000000;" edge="1" parent="1" source="iNfx0G8FtjPH49owoZk--33" target="iNfx0G8FtjPH49owoZk--11">
                    <mxGeometry relative="1" as="geometry"/>
                </mxCell>
                <mxCell id="iNfx0G8FtjPH49owoZk--59" style="edgeStyle=none;html=1;entryX=0;entryY=0.5;entryDx=0;entryDy=0;fontColor=#000000;endArrow=none;endFill=0;strokeColor=#000000;" edge="1" parent="1" source="iNfx0G8FtjPH49owoZk--33" target="iNfx0G8FtjPH49owoZk--10">
                    <mxGeometry relative="1" as="geometry">
                        <Array as="points">
                            <mxPoint x="330" y="760"/>
                        </Array>
                    </mxGeometry>
                </mxCell>
                <mxCell id="iNfx0G8FtjPH49owoZk--60" style="edgeStyle=none;html=1;fontColor=#000000;endArrow=none;endFill=0;strokeColor=#000000;entryX=0;entryY=0.5;entryDx=0;entryDy=0;" edge="1" parent="1" source="iNfx0G8FtjPH49owoZk--33" target="iNfx0G8FtjPH49owoZk--15">
                    <mxGeometry relative="1" as="geometry">
                        <mxPoint x="166" y="1009.2857375372024" as="targetPoint"/>
                        <Array as="points">
                            <mxPoint x="251" y="1036"/>
                        </Array>
                    </mxGeometry>
                </mxCell>
                <mxCell id="iNfx0G8FtjPH49owoZk--33" value="系統管理員" style="shape=umlActor;verticalLabelPosition=bottom;verticalAlign=top;html=1;fontColor=#000000;strokeColor=#808080;fillColor=none;gradientColor=none;" vertex="1" parent="1">
                    <mxGeometry x="81" y="582" width="30" height="60" as="geometry"/>
                </mxCell>
                <mxCell id="iNfx0G8FtjPH49owoZk--38" style="edgeStyle=none;html=1;entryX=1;entryY=1;entryDx=0;entryDy=0;fontColor=#000000;endArrow=none;endFill=0;strokeColor=#000000;" edge="1" parent="1" source="iNfx0G8FtjPH49owoZk--34" target="iNfx0G8FtjPH49owoZk--6">
                    <mxGeometry relative="1" as="geometry">
                        <Array as="points">
                            <mxPoint x="748" y="489"/>
                        </Array>
                    </mxGeometry>
                </mxCell>
                <mxCell id="iNfx0G8FtjPH49owoZk--62" style="edgeStyle=none;html=1;entryX=1;entryY=0.5;entryDx=0;entryDy=0;fontColor=#000000;endArrow=none;endFill=0;strokeColor=#000000;" edge="1" parent="1" source="iNfx0G8FtjPH49owoZk--34" target="iNfx0G8FtjPH49owoZk--12">
                    <mxGeometry relative="1" as="geometry"/>
                </mxCell>
                <mxCell id="iNfx0G8FtjPH49owoZk--34" value="系統管理員" style="shape=umlActor;verticalLabelPosition=bottom;verticalAlign=top;html=1;fontColor=#000000;strokeColor=#808080;fillColor=none;gradientColor=none;" vertex="1" parent="1">
                    <mxGeometry x="956" y="395" width="30" height="60" as="geometry"/>
                </mxCell>
                <mxCell id="iNfx0G8FtjPH49owoZk--36" style="edgeStyle=none;html=1;entryX=1;entryY=1;entryDx=0;entryDy=0;fontColor=#000000;strokeColor=#000000;endArrow=none;endFill=0;" edge="1" parent="1" source="iNfx0G8FtjPH49owoZk--35" target="iNfx0G8FtjPH49owoZk--6">
                    <mxGeometry relative="1" as="geometry"/>
                </mxCell>
                <mxCell id="iNfx0G8FtjPH49owoZk--35" value="« actor »&lt;br&gt;&lt;b&gt;Meta&lt;br&gt;帳戶管理系統&lt;/b&gt;" style="html=1;labelBorderColor=none;fontColor=#000000;strokeColor=#000000;fillColor=#CCFFCC;gradientColor=none;" vertex="1" parent="1">
                    <mxGeometry x="919" y="535" width="110" height="50" as="geometry"/>
                </mxCell>
                <mxCell id="iNfx0G8FtjPH49owoZk--61" value="後台" style="shape=umlFrame;whiteSpace=wrap;html=1;swimlaneFillColor=#FFE6CC;fillColor=#CCFFE6;strokeColor=#82b366;gradientColor=#CC99FF;fontColor=#000000;" vertex="1" parent="1">
                    <mxGeometry x="230" y="1250" width="610" height="406" as="geometry"/>
                </mxCell>
                <mxCell id="iNfx0G8FtjPH49owoZk--69" style="edgeStyle=none;html=1;entryX=0;entryY=0.5;entryDx=0;entryDy=0;fontColor=#000000;endArrow=none;endFill=0;strokeColor=#000000;" edge="1" parent="1" source="iNfx0G8FtjPH49owoZk--63" target="iNfx0G8FtjPH49owoZk--67">
                    <mxGeometry relative="1" as="geometry"/>
                </mxCell>
                <mxCell id="iNfx0G8FtjPH49owoZk--76" style="edgeStyle=none;html=1;entryX=0;entryY=0.5;entryDx=0;entryDy=0;fontColor=#000000;endArrow=none;endFill=0;strokeColor=#000000;" edge="1" parent="1" source="iNfx0G8FtjPH49owoZk--63" target="iNfx0G8FtjPH49owoZk--64">
                    <mxGeometry relative="1" as="geometry"/>
                </mxCell>
                <mxCell id="iNfx0G8FtjPH49owoZk--77" style="edgeStyle=none;html=1;entryX=0;entryY=0.5;entryDx=0;entryDy=0;fontColor=#000000;endArrow=none;endFill=0;strokeColor=#000000;" edge="1" parent="1" source="iNfx0G8FtjPH49owoZk--63" target="iNfx0G8FtjPH49owoZk--65">
                    <mxGeometry relative="1" as="geometry"/>
                </mxCell>
                <mxCell id="iNfx0G8FtjPH49owoZk--78" style="edgeStyle=none;html=1;entryX=0.5;entryY=1;entryDx=0;entryDy=0;fontColor=#000000;endArrow=none;endFill=0;strokeColor=#000000;" edge="1" parent="1" source="iNfx0G8FtjPH49owoZk--63" target="iNfx0G8FtjPH49owoZk--68">
                    <mxGeometry relative="1" as="geometry">
                        <Array as="points">
                            <mxPoint x="320" y="1396"/>
                        </Array>
                    </mxGeometry>
                </mxCell>
                <mxCell id="iNfx0G8FtjPH49owoZk--79" style="edgeStyle=none;html=1;entryX=0;entryY=0;entryDx=0;entryDy=0;fontColor=#000000;endArrow=none;endFill=0;strokeColor=#000000;" edge="1" parent="1" source="iNfx0G8FtjPH49owoZk--63" target="iNfx0G8FtjPH49owoZk--66">
                    <mxGeometry relative="1" as="geometry">
                        <Array as="points">
                            <mxPoint x="331" y="1529"/>
                        </Array>
                    </mxGeometry>
                </mxCell>
                <mxCell id="iNfx0G8FtjPH49owoZk--81" style="edgeStyle=none;html=1;entryX=0;entryY=0;entryDx=0;entryDy=0;fontColor=#000000;endArrow=none;endFill=0;strokeColor=#000000;" edge="1" parent="1" source="iNfx0G8FtjPH49owoZk--63" target="iNfx0G8FtjPH49owoZk--80">
                    <mxGeometry relative="1" as="geometry">
                        <Array as="points">
                            <mxPoint x="319" y="1412"/>
                        </Array>
                    </mxGeometry>
                </mxCell>
                <mxCell id="iNfx0G8FtjPH49owoZk--63" value="系統管理員" style="shape=umlActor;verticalLabelPosition=bottom;verticalAlign=top;html=1;fontColor=#000000;strokeColor=#808080;fillColor=none;gradientColor=none;" vertex="1" parent="1">
                    <mxGeometry x="88" y="1403" width="30" height="60" as="geometry"/>
                </mxCell>
                <mxCell id="iNfx0G8FtjPH49owoZk--64" value="限時動態作業" style="ellipse;whiteSpace=wrap;html=1;fontColor=#000000;fillColor=#99FFFF;gradientColor=none;strokeColor=#808080;" vertex="1" parent="1">
                    <mxGeometry x="351" y="1430" width="140" height="70" as="geometry"/>
                </mxCell>
                <mxCell id="iNfx0G8FtjPH49owoZk--65" value="貼文作業" style="ellipse;whiteSpace=wrap;html=1;fontColor=#000000;fillColor=#99FFFF;gradientColor=none;strokeColor=#808080;" vertex="1" parent="1">
                    <mxGeometry x="351" y="1553" width="140" height="70" as="geometry"/>
                </mxCell>
                <mxCell id="iNfx0G8FtjPH49owoZk--66" value="探索作業" style="ellipse;whiteSpace=wrap;html=1;fontColor=#000000;fillColor=#99FFFF;gradientColor=none;strokeColor=#808080;" vertex="1" parent="1">
                    <mxGeometry x="597" y="1553" width="140" height="70" as="geometry"/>
                </mxCell>
                <mxCell id="iNfx0G8FtjPH49owoZk--67" value="會員作業" style="ellipse;whiteSpace=wrap;html=1;fontColor=#000000;fillColor=#99FFFF;gradientColor=none;strokeColor=#808080;" vertex="1" parent="1">
                    <mxGeometry x="351" y="1307" width="140" height="70" as="geometry"/>
                </mxCell>
                <mxCell id="iNfx0G8FtjPH49owoZk--68" value="登入流程" style="ellipse;whiteSpace=wrap;html=1;fontColor=#000000;fillColor=#99FFFF;gradientColor=none;strokeColor=#808080;" vertex="1" parent="1">
                    <mxGeometry x="597" y="1307" width="140" height="70" as="geometry"/>
                </mxCell>
                <mxCell id="iNfx0G8FtjPH49owoZk--70" value="&amp;lt;&amp;lt; include &amp;gt;&amp;gt;" style="endArrow=block;endFill=1;html=1;fontColor=#000000;rounded=1;dashed=1;strokeWidth=1;strokeColor=#000000;labelBackgroundColor=none;exitX=0.5;exitY=0;exitDx=0;exitDy=0;entryX=0;entryY=1;entryDx=0;entryDy=0;" edge="1" parent="1" source="iNfx0G8FtjPH49owoZk--65" target="iNfx0G8FtjPH49owoZk--67">
                    <mxGeometry x="-0.0732" y="-45" width="160" relative="1" as="geometry">
                        <mxPoint x="245" y="1725" as="sourcePoint"/>
                        <mxPoint x="245" y="1665" as="targetPoint"/>
                        <mxPoint as="offset"/>
                        <Array as="points">
                            <mxPoint x="337" y="1543"/>
                        </Array>
                    </mxGeometry>
                </mxCell>
                <mxCell id="iNfx0G8FtjPH49owoZk--72" value="&amp;lt;&amp;lt; include &amp;gt;&amp;gt;" style="endArrow=block;endFill=1;html=1;fontColor=#000000;rounded=1;dashed=1;strokeWidth=1;strokeColor=#000000;labelBackgroundColor=none;exitX=0;exitY=0.5;exitDx=0;exitDy=0;entryX=1;entryY=0.5;entryDx=0;entryDy=0;" edge="1" parent="1" source="iNfx0G8FtjPH49owoZk--68" target="iNfx0G8FtjPH49owoZk--67">
                    <mxGeometry x="-0.0566" y="13" width="160" relative="1" as="geometry">
                        <mxPoint x="255" y="1735" as="sourcePoint"/>
                        <mxPoint x="255" y="1675" as="targetPoint"/>
                        <mxPoint as="offset"/>
                    </mxGeometry>
                </mxCell>
                <mxCell id="iNfx0G8FtjPH49owoZk--73" value="&amp;lt;&amp;lt; include &amp;gt;&amp;gt;" style="endArrow=block;endFill=1;html=1;fontColor=#000000;rounded=1;dashed=1;strokeWidth=1;strokeColor=#000000;labelBackgroundColor=none;exitX=0;exitY=0.5;exitDx=0;exitDy=0;entryX=1;entryY=0.5;entryDx=0;entryDy=0;" edge="1" parent="1" source="iNfx0G8FtjPH49owoZk--66" target="iNfx0G8FtjPH49owoZk--65">
                    <mxGeometry x="-0.0377" y="11" width="160" relative="1" as="geometry">
                        <mxPoint x="265" y="1745" as="sourcePoint"/>
                        <mxPoint x="265" y="1685" as="targetPoint"/>
                        <mxPoint as="offset"/>
                    </mxGeometry>
                </mxCell>
                <mxCell id="iNfx0G8FtjPH49owoZk--74" value="&amp;lt;&amp;lt; include &amp;gt;&amp;gt;" style="endArrow=block;endFill=1;html=1;fontColor=#000000;rounded=1;dashed=1;strokeWidth=1;strokeColor=#000000;labelBackgroundColor=none;exitX=0.5;exitY=0;exitDx=0;exitDy=0;entryX=0.5;entryY=1;entryDx=0;entryDy=0;" edge="1" parent="1" source="iNfx0G8FtjPH49owoZk--64" target="iNfx0G8FtjPH49owoZk--67">
                    <mxGeometry x="-0.0732" y="-45" width="160" relative="1" as="geometry">
                        <mxPoint x="275" y="1755" as="sourcePoint"/>
                        <mxPoint x="275" y="1695" as="targetPoint"/>
                        <mxPoint as="offset"/>
                    </mxGeometry>
                </mxCell>
                <mxCell id="iNfx0G8FtjPH49owoZk--75" value="&amp;lt;&amp;lt; include &amp;gt;&amp;gt;" style="endArrow=block;endFill=1;html=1;fontColor=#000000;rounded=1;dashed=1;strokeWidth=1;strokeColor=#000000;labelBackgroundColor=none;exitX=1;exitY=0;exitDx=0;exitDy=0;entryX=0;entryY=0;entryDx=0;entryDy=0;" edge="1" parent="1" source="iNfx0G8FtjPH49owoZk--67" target="iNfx0G8FtjPH49owoZk--68">
                    <mxGeometry y="-15" width="160" relative="1" as="geometry">
                        <mxPoint x="285" y="1765" as="sourcePoint"/>
                        <mxPoint x="285" y="1705" as="targetPoint"/>
                        <mxPoint as="offset"/>
                    </mxGeometry>
                </mxCell>
                <mxCell id="iNfx0G8FtjPH49owoZk--80" value="通知作業" style="ellipse;whiteSpace=wrap;html=1;fontColor=#000000;fillColor=#99FFFF;gradientColor=none;strokeColor=#808080;" vertex="1" parent="1">
                    <mxGeometry x="594" y="1430" width="140" height="70" as="geometry"/>
                </mxCell>
            </root>
        </mxGraphModel>
    </diagram>
    <diagram id="rw0xEh2Q6HEWuy4HhyIE" name="初步類別圖">
        <mxGraphModel dx="820" dy="410" grid="1" gridSize="10" guides="1" tooltips="1" connect="1" arrows="1" fold="1" page="1" pageScale="1" pageWidth="827" pageHeight="1169" math="0" shadow="0">
            <root>
                <mxCell id="zrKbW5Popk7BHK01cqO5-0"/>
                <mxCell id="zrKbW5Popk7BHK01cqO5-1" parent="zrKbW5Popk7BHK01cqO5-0"/>
            </root>
        </mxGraphModel>
    </diagram>
    <diagram id="rGYmscE74lfwhk4SGOL2" name="系統循序圖">
        <mxGraphModel dx="820" dy="410" grid="1" gridSize="10" guides="1" tooltips="1" connect="1" arrows="1" fold="1" page="1" pageScale="1" pageWidth="827" pageHeight="1169" math="0" shadow="0">
            <root>
                <mxCell id="ubhWdNOKevItvWObWVyM-0"/>
                <mxCell id="ubhWdNOKevItvWObWVyM-1" parent="ubhWdNOKevItvWObWVyM-0"/>
            </root>
        </mxGraphModel>
    </diagram>
</mxfile>